# Blender v2.79 (sub 0) OBJ File: 'black_fish_model.blend'
# www.blender.org
mtllib black_fish_model.mtl
o Cube
v 1.000000 -1.000000 -1.000000
v 1.000000 -0.345095 1.000000
v -1.000000 -0.345095 1.000000
v -1.000000 -1.000000 -1.000000
v 1.000000 1.000000 -0.999999
v 0.999999 0.240167 1.000001
v -1.000000 0.240167 1.000000
v -1.000000 1.000000 -1.000000
v 0.000000 -1.176456 -1.000000
v 0.000000 -1.000000 2.390772
v 0.000000 1.263439 -1.000000
v -0.000001 1.015284 2.390772
v 1.000000 0.000000 -1.000000
v 1.000000 -0.052464 1.000000
v -1.000000 -0.052464 1.000000
v -1.000000 0.000000 -1.000000
v -0.000000 -0.261062 3.036519
v -0.000000 0.007642 3.076781
v 0.340813 -0.998843 -1.251863
v 0.203089 -0.866996 2.108322
v 0.340813 1.117942 -1.251863
v 0.203088 0.857867 2.108322
v 0.203088 -0.004565 2.810054
v 0.340813 0.195453 -1.251863
v -0.322013 -1.045007 -1.252010
v -0.150240 -0.901607 2.181823
v -0.322013 1.155804 -1.257831
v -0.150240 0.898831 2.181823
v -0.322013 0.208415 -1.257832
v -0.150240 -0.001388 2.930092
v 0.203296 2.064783 -0.893255
v 0.000207 2.210280 -0.893255
v 0.203295 1.351725 1.370792
v 0.000207 1.509142 1.653242
v -0.150032 2.102645 -0.893255
v -0.150033 1.323675 1.561714
v 0.203089 -2.326560 -2.504105
v 0.000001 -2.504172 -2.504105
v 0.203089 2.207662 -2.504105
v 0.000001 2.353159 -2.504105
v 0.000001 0.245263 -2.504105
v 0.203089 0.195453 -2.504105
v -0.150239 -2.372779 -2.504105
v -0.150239 2.245524 -2.504105
v -0.150239 0.208415 -2.504105
v 1.000000 -0.266667 -1.000000
v 1.000000 -0.130499 1.000000
v -1.000000 -0.130499 1.000000
v -1.000000 -0.266667 -1.000000
v 0.203088 -0.234546 2.622925
v 0.340813 -0.123026 -1.251863
v -0.150240 -0.241447 2.730553
v -0.322013 -0.125831 -1.256279
v 0.000001 -0.487920 -2.504105
v 0.203089 -0.477084 -2.504105
v -0.150239 -0.479903 -2.504105
v 2.375027 -0.266667 -0.999999
v 2.375027 -0.000000 -0.999999
v 1.789866 -0.130499 0.349639
v 1.789866 -0.052464 0.349639
v -1.995322 -0.130499 0.369197
v -1.995322 -0.052464 0.369197
v -2.456677 -0.266667 -1.000001
v -2.456677 -0.000000 -1.000001
v 1.000000 0.500000 -1.000000
v 1.000000 0.093851 1.000000
v -1.000000 0.093851 1.000000
v -1.000000 0.500000 -1.000000
v -0.000000 0.511463 2.831054
v 0.340813 0.656698 -1.251863
v 0.203088 0.426651 2.459188
v -0.322013 0.682110 -1.257831
v -0.150240 0.448721 2.555957
v 0.000001 1.299211 -2.504105
v 0.203089 1.201557 -2.504105
v -0.150239 1.226969 -2.504105
v -0.573495 -1.028313 -1.158534
v -0.465437 -0.695183 1.743455
v -0.573495 1.098013 -1.162195
v -0.465438 0.654516 1.743455
v -0.573495 0.131109 -1.162195
v -0.465437 -0.020334 2.214172
v -0.465437 -0.200293 2.088648
v -0.573495 -0.178070 -1.161219
v -0.573495 0.614561 -1.162195
v -0.465437 0.317091 1.978814
v -0.491448 -1.033759 -1.189031
v -0.362603 -0.762530 1.886474
v -0.491448 1.116867 -1.193397
v -0.362603 0.734224 1.886474
v -0.491448 0.156330 -1.193397
v -0.362603 -0.014153 2.447743
v -0.362603 -0.213720 2.298072
v -0.491448 -0.161027 -1.192233
v -0.491448 0.636599 -1.193397
v -0.362603 0.360036 2.167109
v 0.488417 -0.999102 -1.195467
v 0.381531 -0.750133 1.860149
v 0.488417 1.091533 -1.195466
v 0.381530 0.719553 1.860150
v 0.381531 -0.015290 2.404751
v 0.488417 0.151688 -1.195466
v 0.488417 -0.155190 -1.195466
v 0.381531 -0.211248 2.259524
v 0.381531 0.352131 2.132451
v 0.488417 0.621610 -1.195466
v 0.580466 -0.999264 -1.160296
v 0.492813 -0.677255 1.705382
v 0.580466 1.075063 -1.160296
v 0.492812 0.633297 1.705382
v 0.492812 -0.021979 2.151993
v 0.580466 0.124394 -1.160296
v 0.580466 -0.175248 -1.160296
v 0.492812 -0.196719 2.032897
v 0.492812 0.305659 1.928688
v 0.580466 0.599729 -1.160296
vn 0.9935 0.1059 0.0427
vn -0.9896 0.1340 0.0524
vn -0.8742 0.2850 0.3930
vn 0.8752 0.2809 0.3939
vn -0.4557 -0.8706 0.1855
vn -0.5557 0.8045 0.2096
vn 1.0000 0.0000 0.0000
vn -0.8632 0.2209 0.4540
vn -1.0000 -0.0000 -0.0000
vn -0.3509 -0.0016 -0.9364
vn -0.9906 0.0000 -0.1365
vn 0.8502 0.3400 0.4019
vn 0.8172 0.4787 0.3208
vn 0.5315 -0.8456 0.0495
vn 0.8385 -0.2261 0.4958
vn -0.6104 -0.5891 0.5295
vn -0.3555 0.0000 -0.9347
vn -0.0215 -0.9963 0.0835
vn -0.8900 -0.1995 0.4100
vn 0.0257 -0.9960 0.0855
vn 0.3569 0.0000 -0.9341
vn 0.8645 -0.3092 0.3963
vn 0.3717 -0.9258 0.0691
vn 0.4965 0.8618 0.1038
vn 0.8534 0.3207 0.4110
vn -0.8093 -0.2504 0.5314
vn -0.5685 0.6617 0.4888
vn -0.9907 -0.0002 -0.1364
vn -0.8498 0.3422 0.4008
vn -0.4784 -0.8765 0.0531
vn 0.6737 0.7090 0.2084
vn -0.7147 0.6707 0.1985
vn 0.4041 0.1862 -0.8956
vn -0.8123 0.4832 0.3267
vn -0.3192 0.2043 -0.9254
vn 0.0000 0.0000 -1.0000
vn 0.9940 0.0000 -0.1093
vn 0.5766 0.6547 0.4888
vn 0.6222 -0.5791 0.5268
vn -0.9907 -0.0002 -0.1360
vn -0.8416 -0.3507 0.4108
vn 0.8469 -0.3271 0.4192
vn -0.8636 -0.2206 0.4534
vn 0.8422 -0.3483 0.4116
vn -0.3542 -0.0016 -0.9352
vn 0.9175 -0.0000 0.3978
vn 0.0099 0.9994 0.0330
vn 0.6356 0.0000 0.7720
vn -0.9476 0.0000 0.3193
vn -0.5353 0.0000 0.8447
vn -0.0083 0.9994 0.0323
vn -0.7942 0.3311 0.5095
vn 0.8699 0.3034 0.3888
vn 0.8239 0.3048 0.4777
vn -0.8897 0.1997 0.4105
vn -0.3538 -0.0032 -0.9353
vn -0.8506 -0.3086 0.4256
vn -0.8700 -0.2894 0.3992
vn -0.3508 -0.0032 -0.9364
vn -0.8558 0.3037 0.4188
vn -0.5291 0.8375 0.1365
vn -0.4203 -0.9010 0.1078
vn -0.4054 -0.9109 0.0767
vn -0.5174 0.8490 0.1072
vn -0.8527 0.3249 0.4090
vn -0.3508 -0.0039 -0.9365
vn -0.8630 -0.3142 0.3955
vn -0.8459 -0.3317 0.4176
vn -0.3536 -0.0039 -0.9354
vn -0.8688 0.3080 0.3877
vn 0.8514 -0.3045 0.4271
vn 0.8563 0.2999 0.4205
vn 0.5084 0.8507 0.1336
vn 0.3872 -0.9164 0.1011
vn 0.8712 -0.2851 0.3998
vn 0.8911 -0.1934 0.4105
vn 0.4258 -0.8856 0.1855
vn 0.5369 0.8167 0.2114
vn 0.8634 0.2150 0.4564
vn 0.8642 -0.2144 0.4552
vn 0.8905 0.1939 0.4116
usemtl Material.001
s off
f 22//1 21//1 31//1 33//1
f 27//2 28//2 36//2 35//2
f 92//3 96//3 86//3 82//3
f 111//4 115//4 105//4 101//4
usemtl Material.002
f 77//5 78//5 3//5 4//5
f 79//6 8//6 7//6 80//6
f 65//7 5//7 6//7 66//7
f 86//8 80//8 7//8 67//8
f 67//9 7//9 8//9 68//9
f 84//10 77//10 4//10 49//10
f 72//11 27//11 44//11 76//11
f 71//12 22//12 12//12 69//12
f 12//13 22//13 33//13 34//13
f 19//14 20//14 10//14 9//14
f 50//15 23//15 18//15 17//15
f 9//16 25//16 43//16 38//16
f 85//17 81//17 16//17 68//17
f 49//18 48//18 61//18 63//18
f 83//19 82//19 15//19 48//19
f 47//20 46//20 57//20 59//20
f 106//21 102//21 24//21 70//21
f 104//22 101//22 23//22 50//22
f 97//23 98//23 20//23 19//23
f 99//24 21//24 22//24 100//24
f 105//25 100//25 22//25 71//25
f 103//21 97//21 19//21 51//21
f 17//26 18//26 30//26 52//26
f 27//27 11//27 40//27 44//27
f 53//28 29//28 45//28 56//28
f 69//29 12//29 28//29 73//29
f 9//30 10//30 26//30 25//30
f 31//31 32//31 34//31 33//31
f 32//32 35//32 36//32 34//32
f 11//33 27//33 35//33 32//33
f 28//34 12//34 34//34 36//34
f 21//35 11//35 32//35 31//35
f 55//36 37//36 38//36 54//36
f 75//36 42//36 41//36 74//36
f 74//36 41//36 45//36 76//36
f 54//36 38//36 43//36 56//36
f 70//37 24//37 42//37 75//37
f 11//38 21//38 39//38 40//38
f 19//39 9//39 38//39 37//39
f 51//37 19//37 37//37 55//37
f 24//37 51//37 55//37 42//37
f 41//36 54//36 56//36 45//36
f 42//36 55//36 54//36 41//36
f 25//40 53//40 56//40 43//40
f 10//41 17//41 52//41 26//41
f 102//21 103//21 51//21 24//21
f 98//42 104//42 50//42 20//42
f 1//7 46//7 47//7 2//7
f 78//43 83//43 48//43 3//43
f 3//9 48//9 49//9 4//9
f 20//44 50//44 17//44 10//44
f 81//45 84//45 49//45 16//45
f 57//46 58//46 60//46 59//46
f 46//36 13//36 58//36 57//36
f 13//47 14//47 60//47 58//47
f 14//48 47//48 59//48 60//48
f 61//49 62//49 64//49 63//49
f 48//50 15//50 62//50 61//50
f 15//51 16//51 64//51 62//51
f 16//36 49//36 63//36 64//36
f 21//37 70//37 75//37 39//37
f 40//36 74//36 76//36 44//36
f 39//36 75//36 74//36 40//36
f 18//52 69//52 73//52 30//52
f 101//53 105//53 71//53 23//53
f 99//21 106//21 70//21 21//21
f 79//17 85//17 68//17 8//17
f 23//54 71//54 69//54 18//54
f 29//11 72//11 76//11 45//11
f 15//9 67//9 68//9 16//9
f 82//55 86//55 67//55 15//55
f 13//7 65//7 66//7 14//7
f 89//17 95//17 85//17 79//17
f 91//56 94//56 84//56 81//56
f 88//57 93//57 83//57 78//57
f 93//58 92//58 82//58 83//58
f 95//17 91//17 81//17 85//17
f 94//59 87//59 77//59 84//59
f 96//60 90//60 80//60 86//60
f 89//61 79//61 80//61 90//61
f 87//62 88//62 78//62 77//62
f 25//63 26//63 88//63 87//63
f 27//64 89//64 90//64 28//64
f 73//65 28//65 90//65 96//65
f 53//66 25//66 87//66 94//66
f 72//17 29//17 91//17 95//17
f 52//67 30//67 92//67 93//67
f 26//68 52//68 93//68 88//68
f 29//69 53//69 94//69 91//69
f 27//17 72//17 95//17 89//17
f 30//70 73//70 96//70 92//70
f 109//21 116//21 106//21 99//21
f 108//71 114//71 104//71 98//71
f 112//21 113//21 103//21 102//21
f 113//21 107//21 97//21 103//21
f 115//72 110//72 100//72 105//72
f 109//73 99//73 100//73 110//73
f 107//74 108//74 98//74 97//74
f 114//75 111//75 101//75 104//75
f 116//21 112//21 102//21 106//21
f 65//21 13//21 112//21 116//21
f 47//76 14//76 111//76 114//76
f 1//77 2//77 108//77 107//77
f 5//78 109//78 110//78 6//78
f 66//79 6//79 110//79 115//79
f 46//21 1//21 107//21 113//21
f 13//21 46//21 113//21 112//21
f 2//80 47//80 114//80 108//80
f 14//81 66//81 115//81 111//81
f 5//21 65//21 116//21 109//21
