# Blender v2.79 (sub 0) OBJ File: 'bush_model.blend'
# www.blender.org
mtllib bush_model.mtl
o Cube
v 1.000000 -1.000000 -1.000000
v 1.000000 -1.000000 1.000000
v -1.000000 -1.000000 1.000000
v -1.000000 -1.000000 -1.000000
v 1.000000 1.000000 -0.999999
v 1.001553 1.002659 0.997153
v -1.000000 1.000000 1.000000
v -1.000000 1.000000 -1.000000
v 1.000000 1.976023 -0.999999
v 0.999999 1.976023 1.000001
v -1.000000 1.976023 -1.000000
v -1.000000 1.976023 1.000000
v 0.999999 1.488012 1.000001
v -1.000000 1.488012 1.000000
v 1.000000 1.488012 -0.999999
v -1.000000 1.488012 -1.000000
v 0.999999 1.732018 1.000001
v 1.000000 1.732018 -0.999999
v -1.000000 1.732018 1.000000
v -1.000000 1.732018 -1.000000
v -1.000000 1.244006 1.000000
v -1.000000 1.244006 -1.000000
v 1.001553 1.246665 0.997153
v 1.000000 1.244006 -0.999999
v 1.000000 -1.000000 0.000000
v -1.000000 -1.000000 -0.000000
v 1.000000 1.000000 0.000001
v -1.000000 1.000000 -0.000000
v 1.000000 1.976023 0.000001
v -1.000000 1.976023 -0.000000
v -1.000000 1.488012 -0.000000
v 1.000000 1.488012 0.000001
v -1.000000 1.732018 -0.000000
v 1.000000 1.732018 0.000001
v 1.000000 1.244006 0.000001
v -1.000000 1.244006 -0.000000
v 1.000000 -1.000000 0.500000
v 1.000000 1.000000 0.500001
v 1.000000 1.976023 0.500001
v 1.000000 1.488012 0.500001
v 1.000000 1.732018 0.500001
v 1.000000 1.244006 0.500001
v -1.000000 -1.000000 0.500000
v -1.000000 1.000000 0.500000
v -1.000000 1.976023 0.500000
v -1.000000 1.488012 0.500000
v -1.000000 1.732018 0.500000
v -1.000000 1.244006 0.500000
v -1.000000 -1.000000 -0.500000
v -1.000000 1.000000 -0.500000
v -1.000000 1.976023 -0.500000
v -1.000000 1.488012 -0.500000
v -1.000000 1.732018 -0.500000
v -1.000000 1.244006 -0.500000
v 1.000000 -1.000000 -0.500000
v 1.000000 1.000000 -0.499999
v 1.000000 1.976023 -0.499999
v 1.000000 1.488012 -0.499999
v 1.000000 1.732018 -0.499999
v 1.000000 1.244006 -0.499999
v 0.000000 -1.000000 -1.000000
v 0.000000 -1.000000 1.000000
v 0.000000 1.000000 -1.000000
v -0.000001 1.000000 1.000000
v 0.000000 1.976023 -1.000000
v -0.000001 1.976023 1.000000
v 0.000000 1.488012 -1.000000
v -0.000001 1.488012 1.000000
v 0.000000 1.732018 -1.000000
v -0.000001 1.732018 1.000000
v -0.000001 1.244006 1.000000
v 0.000000 1.244006 -1.000000
v -0.000000 1.976023 0.000000
v 0.000000 -1.000000 -0.000000
v -0.000000 1.976023 0.500000
v 0.000000 -1.000000 0.500000
v 0.000000 -1.000000 -0.500000
v 0.000000 1.976023 -0.500000
v 0.500000 1.488012 -1.000000
v 0.500000 1.732018 -1.000000
v 0.500000 1.244006 -1.000000
v 0.500000 1.976023 0.000000
v 0.500000 1.976023 0.500000
v 0.500000 1.976023 -0.500000
v 0.500000 -1.000000 -1.000000
v 0.500000 -1.000000 1.000000
v 0.500000 1.000000 -1.000000
v 0.499999 1.000000 1.000000
v 0.500000 1.976023 -1.000000
v 0.499999 1.976023 1.000000
v 0.499999 1.488012 1.000000
v 0.499999 1.732018 1.000000
v 0.499999 1.244006 1.000000
v 0.500000 -1.000000 -0.000000
v 0.500000 -1.000000 0.500000
v 0.500000 -1.000000 -0.500000
v -0.500000 -1.000000 -1.000000
v -0.500000 -1.000000 1.000000
v -0.500000 1.000000 -1.000000
v -0.500000 1.000000 1.000000
v -0.500000 1.976023 -1.000000
v -0.500000 1.976023 1.000000
v -0.500000 1.488012 1.000000
v -0.500000 1.732018 1.000000
v -0.500000 1.244006 1.000000
v -0.500000 -1.000000 -0.000000
v -0.500000 -1.000000 0.500000
v -0.500000 -1.000000 -0.500000
v -0.500000 1.488012 -1.000000
v -0.500000 1.732018 -1.000000
v -0.500000 1.244006 -1.000000
v -0.500000 1.976023 0.000000
v -0.500000 1.976023 0.500000
v -0.500000 1.976023 -0.500000
v 2.941387 2.418749 1.748088
v 2.942940 2.421408 2.245241
v 2.942940 2.665414 2.245241
v 2.942941 2.665414 1.745241
v 2.668250 3.154245 -0.499998
v 2.668250 3.154245 0.000002
v 2.668250 3.398251 -0.499998
v 2.668250 3.398251 0.000002
v 0.192743 2.951777 2.978154
v -0.307257 2.951777 2.978154
v 0.192743 3.195782 2.978154
v -0.307257 3.195782 2.978154
v 1.376039 3.998907 0.431423
v 1.876039 3.998907 0.431423
v 1.876039 3.998907 0.931423
v 1.376039 3.998907 0.931423
v 0.310125 3.012083 -2.664239
v 0.810125 3.012083 -2.664239
v 0.810125 3.256088 -2.664239
v 0.310125 3.256088 -2.664239
v 2.669579 2.116361 -1.810751
v 2.669579 2.360367 -1.810751
v 2.669579 2.116361 -1.310751
v 2.669579 2.360367 -1.310751
v -0.555525 1.841516 3.093433
v -0.555525 2.085522 3.093433
v -1.055525 1.841516 3.093433
v -1.055525 2.085522 3.093433
v -1.519855 4.074098 1.458639
v -1.519855 4.074098 0.958639
v -1.019855 4.074098 0.958640
v -1.019855 4.074098 1.458640
v -1.043297 3.424146 -1.820122
v -0.543297 3.424146 -1.820122
v -0.543297 3.424146 -2.320122
v -1.043297 3.424146 -2.320122
v -1.190441 2.337161 -2.885063
v -0.690441 2.337161 -2.885063
v -0.690441 2.093155 -2.885063
v -1.190441 2.093155 -2.885063
v -2.499702 2.381995 -0.491117
v -2.499702 2.381995 -0.991117
v -2.499702 2.137989 -0.991117
v -2.499702 2.137989 -0.491117
v -2.770921 2.477694 1.375829
v -2.770921 2.233688 1.375829
v -2.770921 2.233688 0.875830
v -2.770921 2.477694 0.875830
v -1.259928 3.025061 0.979320
v -1.259928 3.025061 0.479320
v -0.759927 3.025061 0.479320
v -0.759928 3.025061 0.979320
v -1.519855 4.172733 0.742767
v -1.019855 4.172733 0.742768
v -1.259927 3.123696 0.263448
v -0.759927 3.123696 0.263448
v -1.389891 3.549579 1.218979
v -0.889891 3.549579 1.218980
v -1.389891 3.549579 0.718980
v -0.889891 3.549579 0.718980
v -1.389891 3.648214 0.503107
v -0.889891 3.648214 0.503108
v -1.619089 4.049510 1.458639
v -1.619089 4.049510 0.958639
v -1.489126 3.524991 1.218979
v -1.489126 3.524991 0.718980
v -1.000000 1.905488 0.654373
v -0.500000 1.905488 0.654373
v -1.259928 2.954525 1.133693
v -0.759928 2.954525 1.133693
v -2.109611 1.905453 -0.493428
v -2.109611 1.905453 -0.993427
v -2.109611 2.149459 -0.493428
v -2.109611 2.149459 -0.993427
v -1.554806 1.574729 -0.996714
v -1.554806 1.574729 -0.496714
v -1.554806 1.818735 -0.496714
v -1.554806 1.818735 -0.996714
v -1.501991 1.907335 -0.496714
v -2.056797 2.238058 -0.493428
v -1.501991 1.907335 -0.996714
v -2.056797 2.238058 -0.993427
v -2.501167 2.381995 -1.238292
v -2.501167 2.137989 -1.238292
v -2.111075 2.149459 -1.240602
v -2.111075 1.905453 -1.240602
v -2.572757 2.015437 -0.491117
v -2.572757 2.015437 -0.991117
v -2.182666 1.782901 -0.493428
v -2.182666 1.782901 -0.993427
v 0.377744 2.469328 -2.071568
v 0.877744 2.469328 -2.071568
v 0.377744 2.713334 -2.071568
v 0.877744 2.713334 -2.071568
v 0.912264 2.192242 -1.768997
v 0.912264 2.436247 -1.768997
v 0.412264 2.192242 -1.768997
v 0.412264 2.436247 -1.768997
v 0.310125 3.358550 -2.570407
v 0.810125 3.358550 -2.570407
v 0.377744 2.815796 -1.977736
v 0.877744 2.815796 -1.977736
v 1.021587 2.469328 -2.087979
v 1.021587 2.713334 -2.087979
v 1.056107 2.192242 -1.785408
v 1.056107 2.436247 -1.785408
v 0.145219 3.012083 -2.645425
v 0.145219 3.256088 -2.645425
v 0.212838 2.469328 -2.052753
v 0.212838 2.713334 -2.052753
v 0.310125 3.012083 -2.826212
v 0.810125 3.012083 -2.826212
v 0.810125 3.256088 -2.826212
v 0.310125 3.256088 -2.826212
v 1.761210 1.800292 0.989371
v 1.761210 1.556286 0.989371
v 1.762764 1.558945 1.486524
v 1.762764 1.802951 1.486524
v 2.484742 2.330566 1.450672
v 2.484742 2.086561 1.950672
v 2.483189 2.083902 1.453520
v 2.484742 2.330566 1.950672
v 0.912089 1.002659 1.136312
v 0.912089 1.246665 1.136312
v 1.673300 1.802951 1.625683
v 1.673300 1.558945 1.625683
v 2.429670 2.405926 1.950672
v 1.707692 1.878311 1.486524
v 1.707692 1.878311 0.986524
v 2.429670 2.405926 1.450672
v 3.021126 2.418749 1.624056
v 3.021126 2.662755 1.624056
v 2.562927 2.327907 1.329487
v 2.562927 2.083902 1.329487
v 2.984105 2.360296 1.748088
v 2.985658 2.362955 2.245241
v 2.527459 2.028107 1.950672
v 2.525906 2.025448 1.453520
v 3.027630 2.418749 1.748088
v 3.029183 2.421408 2.245241
v 3.029183 2.665414 2.245241
v 3.029184 2.665414 1.745241
v -0.928666 1.649348 2.615378
v -0.928666 1.893354 2.615378
v -0.428666 1.893354 2.615378
v -0.428666 1.649348 2.615378
v -0.555525 2.202081 3.046579
v -1.055525 2.202081 3.046579
v -0.428666 2.009913 2.568524
v -0.928666 2.009913 2.568524
v -1.130075 1.841516 3.073650
v -1.130075 2.085522 3.073650
v -1.003216 1.649348 2.595595
v -1.003216 1.893354 2.595595
vn 0.0000 -1.0000 0.0000
vn -0.0000 0.0000 1.0000
vn 1.0000 -0.0004 -0.0016
vn -1.0000 -0.0000 -0.0000
vn 0.0000 0.0000 -1.0000
vn 0.0000 1.0000 0.0000
vn 1.0000 0.0000 0.0000
vn 0.0029 -0.0059 1.0000
vn 0.0057 0.0000 1.0000
vn 0.5558 -0.8313 0.0000
vn 0.5716 0.8205 0.0000
vn 1.0000 0.0032 -0.0016
vn 0.0028 0.0007 1.0000
vn 0.0000 -0.7375 -0.6754
vn 0.0000 0.2086 -0.9780
vn -0.0000 -0.8039 0.5948
vn 0.9363 0.3513 0.0000
vn -0.9390 0.0000 0.3439
vn -0.5900 0.8074 -0.0000
vn -0.7067 0.7075 -0.0000
vn 0.7067 -0.7075 0.0000
vn 0.9882 0.0000 0.1535
vn -0.9882 0.0000 -0.1535
vn 0.0000 0.8039 -0.5948
vn -0.0000 -0.2086 0.9780
vn 0.9176 -0.3974 0.0000
vn -0.9176 0.3974 -0.0000
vn 0.9936 0.0000 -0.1134
vn 0.4368 0.0000 0.8995
vn -0.4368 0.0000 -0.8995
vn -0.5558 0.8313 -0.0000
vn 0.9665 0.0000 0.2565
vn 0.0000 -0.9278 0.3730
vn -0.0000 -0.4156 0.9096
vn 0.9706 0.2405 0.0000
vn 0.0000 -0.6737 -0.7390
vn -0.0000 0.6737 0.7390
vn -0.9363 -0.3513 -0.0000
vn 0.0000 -0.8651 -0.5017
vn 0.9390 -0.0000 -0.3439
vn -0.0000 0.8651 0.5017
vn 0.0059 0.0000 1.0000
vn 0.5120 0.8590 0.0000
vn -0.5716 -0.8205 0.0000
vn -0.2076 0.0000 -0.9782
vn 0.2076 0.0000 0.9782
vn 0.0000 0.4156 -0.9096
vn -0.9706 -0.2405 -0.0000
vn 0.0000 -0.9096 -0.4156
vn -0.0059 0.0000 -1.0000
vn -0.5120 -0.8590 0.0000
vn 0.0000 0.7375 0.6754
vn -0.9936 0.0000 0.1134
vn -0.5890 0.8081 -0.0025
vn 0.5890 -0.8081 0.0025
vn 0.5408 0.0000 -0.8412
vn -0.5408 0.0000 0.8412
vn 0.5426 -0.0066 -0.8400
vn -0.8162 -0.5778 0.0028
vn -0.8074 -0.5900 0.0057
vn 0.0000 0.9278 -0.3730
vn -0.9665 0.0000 -0.2565
vn 0.4405 -0.8519 0.2832
vn 0.0975 -0.3935 0.9141
vn -0.0044 0.0026 -1.0000
vn -0.2565 0.0000 0.9665
vn 0.0000 -0.0115 -0.9999
vn 0.3720 0.2718 -0.8876
vn 0.0763 0.7397 0.6687
vn 0.9965 0.0566 -0.0618
vn 0.0000 -0.3730 -0.9278
vn -0.9755 -0.2000 -0.0914
vn -0.5120 -0.8590 0.0030
vn 0.9755 0.2000 0.0914
vn -0.0000 0.9096 0.4156
vn -0.2405 0.9706 0.0000
vn -0.0975 0.3935 -0.9141
vn 0.2405 -0.9706 0.0000
vn 0.0044 -0.0026 1.0000
vn -0.8590 0.5120 0.0000
vn 0.8590 -0.5120 0.0000
vn 1.0000 0.0000 -0.0059
vn 0.5120 0.8590 -0.0030
vn -1.0000 0.0000 0.0059
vn -0.1134 0.0000 -0.9936
vn -0.9965 -0.0566 0.0618
vn 0.0000 0.6754 -0.7375
vn 0.0000 -0.6754 0.7375
vn 0.1134 0.0000 0.9936
vn -0.0763 -0.7397 -0.6687
vn -0.4405 0.8519 -0.2832
vn 0.8074 0.5900 0.0000
vn 0.8412 0.0000 0.5408
vn -0.8412 0.0000 -0.5408
vn 0.3825 0.2543 -0.8882
vn -0.3720 -0.2718 0.8876
vn 0.8407 0.0005 0.5414
vn -0.8407 -0.0005 -0.5414
vn -0.4315 0.8518 -0.2971
vn 0.8074 0.5900 -0.0057
vn 1.0000 -0.0032 -0.0015
vn 0.0000 -1.0000 0.0053
vn 0.9710 0.0892 0.2218
vn -0.9710 -0.0892 -0.2218
vn 0.0000 0.3730 0.9278
vn 0.2565 0.0000 -0.9665
vn 0.0929 0.9321 -0.3500
vn -0.0929 -0.9321 0.3500
usemtl Material
s off
f 107//1 98//1 3//1 43//1
f 92//2 17//2 10//2 90//2
f 37//3 38//3 6//3 2//3
f 98//2 100//2 7//2 3//2
f 49//4 50//4 8//4 4//4
f 99//5 97//5 4//5 8//5
f 113//6 45//6 12//6 102//6
f 59//7 18//7 9//7 57//7
f 47//4 19//4 12//4 45//4
f 110//5 20//5 11//5 101//5
f 111//5 22//5 16//5 109//5
f 48//4 21//4 14//4 46//4
f 60//7 24//7 15//7 58//7
f 93//8 23//8 13//8 91//8
f 109//5 16//5 20//5 110//5
f 46//4 14//4 19//4 47//4
f 58//7 15//7 18//7 59//7
f 91//2 13//2 17//2 92//2
f 88//9 6//9 23//9 93//9
f 56//10 5//10 135//10 137//10
f 21//11 48//11 162//11 159//11
f 99//5 8//5 22//5 111//5
f 50//4 28//4 36//4 54//4
f 38//7 27//7 35//7 42//7
f 40//7 32//7 34//7 41//7
f 52//4 31//4 33//4 53//4
f 42//7 35//7 32//7 40//7
f 54//4 36//4 31//4 52//4
f 53//4 33//4 30//4 51//4
f 41//7 34//7 29//7 39//7
f 114//6 51//6 30//6 112//6
f 43//4 44//4 28//4 26//4
f 55//7 56//7 27//7 25//7
f 108//1 106//1 26//1 49//1
f 3//4 7//4 44//4 43//4
f 17//7 41//7 39//7 10//7
f 23//12 42//12 40//12 13//12
f 13//7 40//7 41//7 17//7
f 28//4 44//4 48//4 36//4
f 31//4 46//4 47//4 33//4
f 36//4 48//4 46//4 31//4
f 33//4 47//4 45//4 30//4
f 25//7 27//7 38//7 37//7
f 106//1 107//1 43//1 26//1
f 97//1 108//1 49//1 4//1
f 1//7 5//7 56//7 55//7
f 101//6 11//6 51//6 114//6
f 20//4 53//4 51//4 11//4
f 16//4 52//4 53//4 20//4
f 8//4 50//4 54//4 22//4
f 27//7 56//7 60//7 35//7
f 58//5 59//5 121//5 119//5
f 35//7 60//7 58//7 32//7
f 34//7 59//7 57//7 29//7
f 26//4 28//4 50//4 49//4
f 89//6 65//6 78//6 84//6
f 85//1 96//1 77//1 61//1
f 94//1 95//1 76//1 74//1
f 82//6 73//6 75//6 83//6
f 96//1 94//1 74//1 77//1
f 84//6 78//6 73//6 82//6
f 87//5 63//5 72//5 81//5
f 103//2 68//2 70//2 104//2
f 79//5 67//5 69//5 80//5
f 105//2 71//2 68//2 103//2
f 81//5 72//5 67//5 79//5
f 80//5 69//5 65//5 89//5
f 83//6 75//6 66//6 90//6
f 87//5 85//5 61//5 63//5
f 86//2 88//2 64//2 62//2
f 104//2 70//2 66//2 102//2
f 95//1 86//1 62//1 76//1
f 37//1 2//1 86//1 95//1
f 2//13 6//13 88//13 86//13
f 5//5 1//5 85//5 87//5
f 39//6 83//6 90//6 10//6
f 18//5 80//5 89//5 9//5
f 24//5 81//5 79//5 15//5
f 206//14 205//14 131//14 132//14
f 5//5 87//5 81//5 24//5
f 57//6 84//6 82//6 29//6
f 55//1 25//1 94//1 96//1
f 29//15 82//15 127//15 128//15
f 25//1 37//1 95//1 94//1
f 1//1 55//1 96//1 85//1
f 9//6 89//6 84//6 57//6
f 64//2 88//2 93//2 71//2
f 68//16 91//16 123//16 124//16
f 71//2 93//2 91//2 68//2
f 70//2 92//2 90//2 66//2
f 19//2 104//2 102//2 12//2
f 21//2 105//2 103//2 14//2
f 14//2 103//2 104//2 19//2
f 7//2 100//2 105//2 21//2
f 78//17 65//17 149//17 148//17
f 61//1 77//1 108//1 97//1
f 74//1 76//1 107//1 106//1
f 73//6 112//6 113//6 75//6
f 77//1 74//1 106//1 108//1
f 78//6 114//6 112//6 73//6
f 99//18 111//18 151//18 154//18
f 67//5 109//5 110//5 69//5
f 72//5 111//5 109//5 67//5
f 69//5 110//5 101//5 65//5
f 75//6 113//6 102//6 66//6
f 63//5 61//5 97//5 99//5
f 62//2 64//2 100//2 98//2
f 76//1 62//1 98//1 107//1
f 233//19 236//19 117//19 118//19
f 120//7 119//7 121//7 122//7
f 59//20 34//20 122//20 121//20
f 32//21 58//21 119//21 120//21
f 34//2 32//2 120//2 122//2
f 124//2 123//2 125//2 126//2
f 91//22 92//22 125//22 123//22
f 70//23 68//23 124//23 126//23
f 92//24 70//24 126//24 125//24
f 128//6 127//6 130//6 129//6
f 83//25 39//25 129//25 130//25
f 39//26 29//26 128//26 129//26
f 82//27 83//27 130//27 127//27
f 208//28 206//28 132//28 133//28
f 137//7 135//7 136//7 138//7
f 60//29 56//29 137//29 138//29
f 5//30 24//30 136//30 135//30
f 24//31 60//31 138//31 136//31
f 260//32 259//32 140//32 139//32
f 257//33 260//33 139//33 141//33
f 145//6 144//6 143//6 146//6
f 171//34 172//34 146//34 143//34
f 172//35 174//35 145//35 146//35
f 149//6 150//6 147//6 148//6
f 65//36 101//36 150//36 149//36
f 114//37 78//37 148//37 147//37
f 101//38 114//38 147//38 150//38
f 153//5 154//5 151//5 152//5
f 63//39 99//39 154//39 153//39
f 72//40 63//40 153//40 152//40
f 111//41 72//41 152//41 151//41
f 157//4 158//4 155//4 156//4
f 185//42 187//42 155//42 158//42
f 187//43 188//43 156//43 155//43
f 161//4 160//4 159//4 162//4
f 44//44 7//44 160//44 161//44
f 48//45 44//45 161//45 162//45
f 7//46 21//46 159//46 160//46
f 113//35 112//35 165//35 166//35
f 112//47 30//47 164//47 165//47
f 30//48 45//48 163//48 164//48
f 166//35 165//35 174//35 172//35
f 163//34 166//34 172//34 171//34
f 164//48 163//48 171//48 173//48
f 45//49 113//49 182//49 181//49
f 192//50 189//50 186//50 188//50
f 190//42 191//42 187//42 185//42
f 189//51 190//51 185//51 186//51
f 22//51 54//51 190//51 189//51
f 54//42 52//42 191//42 190//42
f 52//43 16//43 192//43 191//43
f 16//50 22//50 189//50 192//50
f 212//52 210//52 208//52 207//52
f 211//53 212//53 207//53 205//53
f 209//14 211//14 205//14 206//14
f 15//14 79//14 211//14 209//14
f 79//53 80//53 212//53 211//53
f 18//28 15//28 209//28 210//28
f 80//52 18//52 210//52 212//52
f 42//54 23//54 232//54 229//54
f 6//55 38//55 230//55 231//55
f 38//56 42//56 229//56 230//56
f 231//55 230//55 235//55 234//55
f 232//57 231//57 234//57 236//57
f 230//58 229//58 233//58 235//58
f 229//59 232//59 242//59 243//59
f 234//60 235//60 252//60 251//60
f 100//33 64//33 260//33 257//33
f 71//61 105//61 258//61 259//61
f 64//32 71//32 259//32 260//32
f 105//62 100//62 257//62 258//62
usemtl Material.001
f 115//63 235//63 248//63 245//63
f 171//64 143//64 177//64 179//64
f 157//65 186//65 204//65 202//65
f 141//66 142//66 266//66 265//66
f 115//67 118//67 256//67 253//67
f 236//57 234//57 116//57 117//57
f 235//68 115//68 249//68 252//68
f 134//6 133//6 227//6 228//6
f 207//69 134//69 222//69 224//69
f 208//70 133//70 214//70 216//70
f 141//2 139//2 140//2 142//2
f 259//71 258//71 264//71 263//71
f 173//72 144//72 167//72 175//72
f 186//73 157//73 198//73 200//73
f 163//72 45//72 181//72 183//72
f 176//47 175//47 167//47 168//47
f 165//49 164//49 169//49 170//49
f 174//74 165//74 170//74 176//74
f 144//75 145//75 168//75 167//75
f 145//74 174//74 176//74 168//74
f 170//47 169//47 175//47 176//47
f 164//72 173//72 175//72 169//72
f 180//48 179//48 177//48 178//48
f 143//76 144//76 178//76 177//76
f 144//77 173//77 180//77 178//77
f 173//78 171//78 179//78 180//78
f 181//34 182//34 184//34 183//34
f 166//75 163//75 183//75 184//75
f 113//74 166//74 184//74 182//74
f 187//79 191//79 193//79 194//79
f 193//43 195//43 196//43 194//43
f 188//80 187//80 194//80 196//80
f 192//65 188//65 196//65 195//65
f 191//81 192//81 195//81 193//81
f 199//50 200//50 198//50 197//50
f 188//82 186//82 200//82 199//82
f 156//83 188//83 199//83 197//83
f 157//84 156//84 197//84 198//84
f 204//51 203//51 201//51 202//51
f 185//79 158//79 201//79 203//79
f 158//80 157//80 202//80 201//80
f 186//81 185//81 203//81 204//81
f 206//85 208//85 218//85 217//85
f 215//52 216//52 214//52 213//52
f 134//86 207//86 215//86 213//86
f 133//87 134//87 213//87 214//87
f 207//88 208//88 216//88 215//88
f 220//28 219//28 217//28 218//28
f 210//89 209//89 219//89 220//89
f 209//90 206//90 217//90 219//90
f 208//69 210//69 220//69 218//69
f 223//53 224//53 222//53 221//53
f 131//90 205//90 223//90 221//90
f 205//89 207//89 224//89 223//89
f 134//85 131//85 221//85 222//85
f 226//5 225//5 228//5 227//5
f 132//1 131//1 225//1 226//1
f 131//4 134//4 228//4 225//4
f 133//7 132//7 226//7 227//7
f 232//91 23//91 238//91 239//91
f 236//92 233//92 244//92 241//92
f 238//57 237//57 240//57 239//57
f 231//93 232//93 239//93 240//93
f 23//94 6//94 237//94 238//94
f 6//63 231//63 240//63 237//63
f 243//19 242//19 241//19 244//19
f 233//95 229//95 243//95 244//95
f 232//96 236//96 241//96 242//96
f 248//56 247//56 246//56 245//56
f 118//97 115//97 245//97 246//97
f 235//98 233//98 247//98 248//98
f 233//99 118//99 246//99 247//99
f 251//55 252//55 249//55 250//55
f 116//96 234//96 251//96 250//96
f 115//100 116//100 250//100 249//100
f 254//101 253//101 256//101 255//101
f 117//2 116//2 254//2 255//2
f 118//6 117//6 255//6 256//6
f 116//102 115//102 253//102 254//102
f 263//61 264//61 262//61 261//61
f 140//103 259//103 263//103 261//103
f 258//104 142//104 262//104 264//104
f 142//105 140//105 261//105 262//105
f 268//62 267//62 265//62 266//62
f 258//106 257//106 267//106 268//106
f 142//107 258//107 268//107 266//107
f 257//108 141//108 265//108 267//108
