# Blender v2.79 (sub 0) OBJ File: 'cloud.blend'
# www.blender.org
mtllib cloud_model.mtl
o Cube
v 1.000000 -1.000000 -1.000000
v 1.000000 -1.000000 1.000000
v -1.000000 -1.000000 1.000000
v -1.357572 -1.000000 -1.000000
v 1.000000 1.000000 -0.999999
v 0.999999 1.000000 1.000001
v -1.000000 1.000000 1.000000
v -1.000000 1.000000 -1.000000
v 0.515657 -0.749837 2.400064
v -0.999792 -0.690485 2.479017
v 0.579085 0.650505 2.413731
v -0.815751 0.556158 2.546896
v 0.812191 -0.884965 -2.874998
v -0.816959 -0.920199 -2.708731
v 0.723552 0.760273 -2.847883
v -0.888278 0.824600 -3.065358
v 2.742867 -0.851102 -0.693749
v 2.779372 -0.687635 0.803794
v 2.818471 0.952455 -0.549310
v 2.760082 1.000000 0.824494
v 1.000000 -1.000000 0.000000
v -1.000000 -1.000000 -0.000000
v 1.000000 1.000000 0.000001
v -1.000000 1.000000 -0.000000
v 2.998743 -1.000000 0.000001
v 2.998743 1.000000 0.000001
v 0.000000 -1.114104 -1.177736
v 0.000000 -1.000000 1.000000
v 0.000000 1.244464 -1.000000
v -0.000001 1.244464 1.000000
v -0.147984 -0.906788 2.496832
v -0.010880 0.939337 2.781657
v 0.000001 -1.000000 -3.065358
v 0.000001 1.244464 -3.065358
v -0.000000 1.244464 0.000000
v 1.000000 0.000000 -1.000000
v 1.229227 0.000000 1.320233
v -1.357573 0.000000 1.000000
v -1.357572 0.000000 -1.000000
v 0.686077 -0.106358 2.653983
v -1.202513 -0.105556 2.778210
v 1.000001 0.000000 -3.065358
v -1.357572 0.000000 -3.065358
v 2.998743 0.000000 -0.999999
v 2.998743 0.000000 1.000001
v 2.998743 0.000000 0.000001
v -1.357572 0.000000 -0.000000
v 0.000001 0.000000 -3.378533
v -0.079432 -0.105957 3.192867
v 1.000000 -1.619062 0.000000
v 0.816152 -1.619062 0.792987
v 0.000000 -1.619062 -1.000000
v -1.154361 -1.268590 -0.818413
v 0.000000 -1.619062 1.000000
v -0.782165 -1.404207 0.845056
v -1.000000 -1.619062 -0.000000
v 0.784776 -1.619062 -0.735427
v 0.000000 -1.947159 -0.000000
v 1.000000 -1.000000 -2.032679
v 1.000001 1.000000 -2.032679
v -1.000000 1.000000 -2.032679
v -1.178786 -1.000000 -2.032680
v 0.000000 -1.057052 -2.121547
v 0.000000 1.244464 -2.032679
v -1.357572 0.000000 -2.032679
v 1.227249 0.000000 -2.032679
v 1.999371 1.000000 1.000001
v 1.999372 1.000000 -0.870450
v 1.999372 -1.000000 1.000000
v 1.999372 -1.000000 -1.000000
v 1.999372 -1.000000 0.000000
v 1.999372 1.347973 0.000001
v 1.999372 0.000000 -1.200051
v 2.113985 0.000000 1.347642
vn 0.1114 -0.1800 0.9773
vn -0.2375 0.9714 0.0000
vn 0.2097 0.9550 0.2096
vn -0.9368 -0.3437 0.0662
vn -0.9416 0.3367 -0.0000
vn 0.9468 -0.2311 -0.2238
vn -0.3633 0.4115 0.8359
vn 0.8888 0.2847 0.3591
vn 0.1010 -0.9852 0.1388
vn -0.3459 0.9114 0.2231
vn -0.2845 -0.3862 -0.8775
vn 0.4021 0.8984 -0.1767
vn -0.9076 0.4113 -0.0840
vn -0.0911 -0.9904 -0.1040
vn 0.9833 0.1286 0.1286
vn 0.3496 -0.3493 0.8694
vn 0.2641 0.3789 -0.8870
vn 0.1025 -0.9894 -0.1025
vn 0.1900 -0.9632 0.1899
vn 0.9859 0.1183 -0.1183
vn 0.2519 0.9235 -0.2893
vn 0.9815 -0.1626 0.1006
vn -0.9639 -0.2264 0.1402
vn 0.2375 0.9714 0.0000
vn 0.1103 -0.9881 -0.1068
vn -0.3303 0.9388 -0.0976
vn 0.2736 -0.2736 -0.9221
vn 0.3574 0.9043 0.2335
vn -0.1163 -0.9850 0.1275
vn 0.5741 0.2891 0.7660
vn 0.2447 -0.3953 -0.8854
vn 0.3889 -0.5503 0.7389
vn 0.3542 0.2846 -0.8908
vn -0.9416 -0.3367 -0.0000
vn 0.9736 -0.1613 -0.1613
vn 0.2897 -0.2896 -0.9122
vn 0.2900 0.2898 0.9121
vn 0.9790 -0.1440 0.1440
vn -0.9025 -0.3769 -0.2087
vn -0.1696 0.1850 -0.9680
vn 0.8763 -0.3343 0.3469
vn -0.2344 -0.5820 0.7787
vn 0.9111 0.2961 -0.2868
vn -0.9695 -0.1733 0.1733
vn -0.8922 0.4220 0.1608
vn -0.3018 -0.9044 0.3018
vn -0.3093 -0.8993 -0.3093
vn 0.2064 -0.9564 -0.2064
vn 0.1959 -0.9609 0.1959
vn -0.9566 -0.1706 0.2364
vn 0.9733 -0.1950 -0.1207
vn -0.1058 -0.1708 0.9796
vn -0.2082 -0.4565 -0.8650
vn 0.9877 0.1122 0.1087
vn -0.9923 -0.0887 -0.0859
vn 0.0890 -0.9956 -0.0287
vn -0.0710 -0.9969 -0.0352
vn 0.9877 -0.1122 0.1087
vn -0.0138 0.3146 0.9491
vn -0.0991 -0.0990 -0.9901
vn -0.1573 0.9709 -0.1806
vn 0.0000 -1.0000 0.0000
vn -0.0348 0.1625 -0.9861
vn -0.0138 -0.3146 0.9491
vn -0.1691 0.9710 0.1689
usemtl Material
s off
f 2//1 28//1 54//1 51//1
f 35//2 24//2 7//2 30//2
f 72//3 67//3 20//3 26//3
f 38//4 3//4 10//4 41//4
f 47//5 24//5 8//5 39//5
f 66//6 59//6 13//6 42//6
f 49//7 32//7 12//7 41//7
f 37//8 6//8 11//8 40//8
f 28//9 2//9 9//9 31//9
f 30//10 7//10 12//10 32//10
f 48//11 33//11 14//11 43//11
f 64//12 60//12 15//12 34//12
f 65//13 61//13 16//13 43//13
f 63//14 62//14 14//14 33//14
f 46//15 26//15 20//15 45//15
f 74//16 69//16 18//16 45//16
f 73//17 68//17 19//17 44//17
f 71//18 70//18 17//18 25//18
f 69//19 71//19 25//19 18//19
f 44//20 19//20 26//20 46//20
f 38//5 7//5 24//5 47//5
f 68//21 72//21 26//21 19//21
f 29//2 8//2 24//2 35//2
f 21//22 2//22 51//22 50//22
f 3//23 22//23 56//23 55//23
f 5//24 29//24 35//24 23//24
f 59//25 63//25 33//25 13//25
f 61//26 64//26 34//26 16//26
f 42//27 13//27 33//27 48//27
f 6//28 30//28 32//28 11//28
f 3//29 28//29 31//29 10//29
f 40//30 11//30 32//30 49//30
f 23//24 35//24 30//24 6//24
f 27//31 1//31 57//31 52//31
f 9//32 40//32 49//32 31//32
f 15//33 42//33 48//33 34//33
f 3//34 38//34 47//34 22//34
f 17//35 44//35 46//35 25//35
f 70//36 73//36 44//36 17//36
f 67//37 74//37 45//37 20//37
f 25//38 46//38 45//38 18//38
f 62//39 65//39 43//39 14//39
f 34//40 48//40 43//40 16//40
f 2//41 37//41 40//41 9//41
f 31//42 49//42 41//42 10//42
f 60//43 66//43 42//43 15//43
f 22//44 47//44 39//44 4//44
f 7//45 38//45 41//45 12//45
f 58//46 54//46 55//46 56//46
f 52//47 58//47 56//47 53//47
f 57//48 50//48 58//48 52//48
f 50//49 51//49 54//49 58//49
f 22//50 4//50 53//50 56//50
f 1//51 21//51 50//51 57//51
f 28//52 3//52 55//52 54//52
f 4//53 27//53 52//53 53//53
f 5//54 36//54 66//54 60//54
f 4//55 39//55 65//55 62//55
f 8//2 29//2 64//2 61//2
f 1//56 27//56 63//56 59//56
f 27//57 4//57 62//57 63//57
f 39//5 8//5 61//5 65//5
f 29//24 5//24 60//24 64//24
f 36//58 1//58 59//58 66//58
f 6//59 37//59 74//59 67//59
f 1//60 36//60 73//60 70//60
f 5//61 23//61 72//61 68//61
f 2//62 21//62 71//62 69//62
f 21//62 1//62 70//62 71//62
f 36//63 5//63 68//63 73//63
f 37//64 2//64 69//64 74//64
f 23//65 6//65 67//65 72//65
